<?xml version="1.0" encoding="UTF-8" standalone="no"?>
<!DOCTYPE svg PUBLIC "-//W3C//DTD SVG 1.1//EN" "http://www.w3.org/Graphics/SVG/1.1/DTD/svg11.dtd">
<svg version="1.1" xmlns="http://www.w3.org/2000/svg" xmlns:xlink="http://www.w3.org/1999/xlink" preserveAspectRatio="xMidYMid meet" viewBox="2.4318901795142356 1.6327077651831132 584 317.54469455794253" width="580" height="313.54"><defs><path d="M339.64 75.68L339.64 242.63L247.51 242.63L223.43 242.63L223.43 219.28L223.43 2.63L339.64 75.68Z" id="g7WlTYDhUq"></path><path d="M346.43 169.59L346.43 2.63L463.43 2.63L463.43 242.63L346.43 169.59Z" id="a1YMBCaDfT"></path><path d="M583.43 249.94L583.43 2.63L470.22 2.63L470.22 314.46" id="a1zr3sWfmS"></path><path d="M470.22 314.46C538.09 322.84 575.83 300.57 583.43 247.64" id="a4fD8F6n4"></path><path d="" id="czp7W0XA2"></path><path d="M215.85 2.63L215.85 118L3.43 118" id="a5omm1K0aG"></path><path d="M3.44 118C3.8 96.09 3.8 73.01 3.44 48.78C3.25 35.33 5.32 22.17 14.07 14.17C21.08 7.76 31.7 3.91 45.93 2.63L215.86 2.63" id="a8kfibJSCo"></path><path d="M215.85 242.63L215.85 125.14L3.43 125.14" id="a3XbNjCXgT"></path><path d="M3.44 125.14C3.8 147.45 3.8 170.95 3.44 195.63C3.25 209.33 5.32 222.74 14.07 230.88C21.08 237.41 31.7 241.33 45.93 242.63L215.86 242.63" id="c1OFdlXZ1S"></path></defs><g><g><g><use xlink:href="#g7WlTYDhUq" opacity="1" fill-opacity="0" stroke="#000000" stroke-width="1" stroke-opacity="1"></use></g></g><g><g><use xlink:href="#a1YMBCaDfT" opacity="1" fill-opacity="0" stroke="#000000" stroke-width="1" stroke-opacity="1"></use></g></g><g><g><use xlink:href="#a1zr3sWfmS" opacity="1" fill-opacity="0" stroke="#000000" stroke-width="1" stroke-opacity="1"></use></g></g><g><g><use xlink:href="#a4fD8F6n4" opacity="1" fill-opacity="0" stroke="#000000" stroke-width="1" stroke-opacity="1"></use></g></g><g><g><use xlink:href="#czp7W0XA2" opacity="1" fill-opacity="0" stroke="#4ebccc" stroke-width="1" stroke-opacity="1"></use></g></g><g><g><use xlink:href="#a5omm1K0aG" opacity="1" fill-opacity="0" stroke="#000000" stroke-width="1" stroke-opacity="1"></use></g></g><g><g><use xlink:href="#a8kfibJSCo" opacity="1" fill-opacity="0" stroke="#020202" stroke-width="1" stroke-opacity="1"></use></g></g><g><g><use xlink:href="#a3XbNjCXgT" opacity="1" fill-opacity="0" stroke="#000000" stroke-width="1" stroke-opacity="1"></use></g></g><g><g><use xlink:href="#c1OFdlXZ1S" opacity="1" fill-opacity="0" stroke="#020202" stroke-width="1" stroke-opacity="1"></use></g></g></g></svg>